<svg width="16" height="16" viewBox="0 0 16 16" fill="none" xmlns="http://www.w3.org/2000/svg">
<g clip-path="url(#clip0_410_559)">
<path d="M15.9914 8.14946C15.9914 7.49394 15.937 7.01559 15.8192 6.51953H8.15918V9.47819H12.6554C12.5648 10.2135 12.0753 11.3208 10.9875 12.0648L10.9722 12.1639L13.3941 13.9973L13.5619 14.0137C15.103 12.6229 15.9914 10.5766 15.9914 8.14946Z" fill="#4285F4"/>
<path d="M8.15941 15.9465C10.3622 15.9465 12.2114 15.2378 13.5622 14.0154L10.9877 12.0665C10.2987 12.536 9.37409 12.8638 8.15941 12.8638C6.00194 12.8638 4.17082 11.473 3.51807 9.55078L3.42239 9.55872L0.904028 11.4633L0.871094 11.5527C2.21271 14.1571 4.96848 15.9465 8.15941 15.9465Z" fill="#34A853"/>
<path d="M3.51818 9.54984C3.34594 9.05378 3.24627 8.52224 3.24627 7.97305C3.24627 7.4238 3.34594 6.89232 3.50912 6.39626L3.50455 6.29061L0.954628 4.35547L0.871199 4.39425C0.318256 5.47498 0.000976562 6.6886 0.000976562 7.97305C0.000976562 9.25751 0.318256 10.4711 0.871199 11.5518L3.51818 9.54984Z" fill="#FBBC05"/>
<path d="M8.15941 3.08269C9.69137 3.08269 10.7248 3.72934 11.314 4.26974L13.6165 2.07285C12.2024 0.788397 10.3622 0 8.15941 0C4.96848 0 2.21271 1.78937 0.871094 4.39371L3.50901 6.39573C4.17082 4.47347 6.00194 3.08269 8.15941 3.08269Z" fill="#EB4335"/>
</g>
<defs>
<clipPath id="clip0_410_559">
<rect width="16" height="16" fill="white"/>
</clipPath>
</defs>
</svg>
